<svg width="98" height="22" viewBox="0 0 98 22" fill="none" xmlns="http://www.w3.org/2000/svg">
<g clip-path="url(#clip0_167_563)">
<path d="M4.47461 4.70312V17.5H2.05762V4.70312H4.47461ZM12.1562 4.70312L7.02344 10.9434L4.08789 14.0811L3.65723 11.7344L5.69629 9.08887L9.19434 4.70312H12.1562ZM9.4668 17.5L5.48535 11.5059L7.2168 9.94141L12.3408 17.5H9.4668ZM15.5664 4V17.5H13.2373V4H15.5664ZM15.1973 12.4023H14.5117C14.5117 11.7402 14.5996 11.1309 14.7754 10.5742C14.9512 10.0176 15.2002 9.53418 15.5225 9.12402C15.8447 8.70801 16.2285 8.38574 16.6738 8.15723C17.125 7.92871 17.623 7.81445 18.168 7.81445C18.6367 7.81445 19.0615 7.88184 19.4424 8.0166C19.8291 8.14551 20.1602 8.35352 20.4355 8.64062C20.7109 8.92773 20.9219 9.30273 21.0684 9.76562C21.2207 10.2227 21.2969 10.7793 21.2969 11.4355V17.5H18.959V11.418C18.959 10.9785 18.8945 10.6328 18.7656 10.3809C18.6367 10.123 18.4521 9.93848 18.2119 9.82715C17.9775 9.71582 17.6875 9.66016 17.3418 9.66016C16.9668 9.66016 16.6445 9.7334 16.375 9.87988C16.1055 10.0205 15.8828 10.2168 15.707 10.4688C15.5371 10.7207 15.4082 11.0107 15.3203 11.3389C15.2383 11.667 15.1973 12.0215 15.1973 12.4023ZM22.9316 12.8418V12.6572C22.9316 11.96 23.0312 11.3184 23.2305 10.7324C23.4297 10.1406 23.7197 9.62793 24.1006 9.19434C24.4814 8.76074 24.9473 8.42383 25.498 8.18359C26.0488 7.9375 26.6758 7.81445 27.3789 7.81445C28.0938 7.81445 28.7266 7.9375 29.2773 8.18359C29.834 8.42383 30.3027 8.76074 30.6836 9.19434C31.0645 9.62793 31.3545 10.1406 31.5537 10.7324C31.7529 11.3184 31.8525 11.96 31.8525 12.6572V12.8418C31.8525 13.5332 31.7529 14.1748 31.5537 14.7666C31.3545 15.3525 31.0645 15.8652 30.6836 16.3047C30.3027 16.7383 29.8369 17.0752 29.2861 17.3154C28.7354 17.5557 28.1055 17.6758 27.3965 17.6758C26.6934 17.6758 26.0635 17.5557 25.5068 17.3154C24.9502 17.0752 24.4814 16.7383 24.1006 16.3047C23.7197 15.8652 23.4297 15.3525 23.2305 14.7666C23.0312 14.1748 22.9316 13.5332 22.9316 12.8418ZM25.252 12.6572V12.8418C25.252 13.2578 25.293 13.6475 25.375 14.0107C25.457 14.374 25.583 14.6934 25.7529 14.9688C25.9229 15.2441 26.1426 15.4609 26.4121 15.6191C26.6875 15.7715 27.0156 15.8477 27.3965 15.8477C27.7715 15.8477 28.0938 15.7715 28.3633 15.6191C28.6328 15.4609 28.8525 15.2441 29.0225 14.9688C29.1982 14.6934 29.3271 14.374 29.4092 14.0107C29.4912 13.6475 29.5322 13.2578 29.5322 12.8418V12.6572C29.5322 12.2471 29.4912 11.8633 29.4092 11.5059C29.3271 11.1426 29.1982 10.8232 29.0225 10.5479C28.8525 10.2666 28.6299 10.0469 28.3545 9.88867C28.085 9.72461 27.7598 9.64258 27.3789 9.64258C27.0039 9.64258 26.6816 9.72461 26.4121 9.88867C26.1426 10.0469 25.9229 10.2666 25.7529 10.5479C25.583 10.8232 25.457 11.1426 25.375 11.5059C25.293 11.8633 25.252 12.2471 25.252 12.6572ZM26.2275 6.67188L27.9502 4H30.5166L28.1172 6.67188H26.2275ZM38.7783 15.4785V11.0928C38.7783 10.7705 38.7227 10.4922 38.6113 10.2578C38.5 10.0234 38.3301 9.8418 38.1016 9.71289C37.873 9.58398 37.583 9.51953 37.2314 9.51953C36.9209 9.51953 36.6484 9.57227 36.4141 9.67773C36.1855 9.7832 36.0098 9.93262 35.8867 10.126C35.7637 10.3135 35.7021 10.5303 35.7021 10.7764H33.373C33.373 10.3838 33.4668 10.0117 33.6543 9.66016C33.8418 9.30273 34.1084 8.98633 34.4541 8.71094C34.8057 8.42969 35.2246 8.20996 35.7109 8.05176C36.2031 7.89355 36.7539 7.81445 37.3633 7.81445C38.084 7.81445 38.7256 7.9375 39.2881 8.18359C39.8564 8.42383 40.3018 8.78711 40.624 9.27344C40.9521 9.75977 41.1162 10.3721 41.1162 11.1104V15.2588C41.1162 15.7334 41.1455 16.1406 41.2041 16.4805C41.2686 16.8145 41.3623 17.1045 41.4854 17.3506V17.5H39.1211C39.0098 17.2598 38.9248 16.9551 38.8662 16.5859C38.8076 16.2109 38.7783 15.8418 38.7783 15.4785ZM39.1035 11.708L39.1211 13.0879H37.6533C37.29 13.0879 36.9707 13.126 36.6953 13.2021C36.4199 13.2725 36.1943 13.3779 36.0186 13.5186C35.8428 13.6533 35.7109 13.8174 35.623 14.0107C35.5352 14.1982 35.4912 14.4121 35.4912 14.6523C35.4912 14.8867 35.5439 15.0977 35.6494 15.2852C35.7607 15.4727 35.9189 15.6221 36.124 15.7334C36.335 15.8389 36.5811 15.8916 36.8623 15.8916C37.2725 15.8916 37.6299 15.8096 37.9346 15.6455C38.2393 15.4756 38.4766 15.2705 38.6465 15.0303C38.8164 14.79 38.9072 14.5615 38.9189 14.3447L39.5869 15.3467C39.5049 15.5869 39.3818 15.8418 39.2178 16.1113C39.0537 16.3809 38.8428 16.6328 38.585 16.8672C38.3271 17.1016 38.0166 17.2949 37.6533 17.4473C37.29 17.5996 36.8682 17.6758 36.3877 17.6758C35.7725 17.6758 35.2217 17.5527 34.7354 17.3066C34.249 17.0605 33.8652 16.7236 33.584 16.2959C33.3027 15.8682 33.1621 15.3818 33.1621 14.8369C33.1621 14.333 33.2559 13.8877 33.4434 13.501C33.6309 13.1143 33.9092 12.7891 34.2783 12.5254C34.6475 12.2559 35.1045 12.0537 35.6494 11.9189C36.2002 11.7783 36.8301 11.708 37.5391 11.708H39.1035ZM49.9668 4V17.5H47.6377V4H49.9668ZM49.5977 12.4023H48.9121C48.9121 11.7402 49 11.1309 49.1758 10.5742C49.3516 10.0176 49.6006 9.53418 49.9229 9.12402C50.2451 8.70801 50.6289 8.38574 51.0742 8.15723C51.5254 7.92871 52.0234 7.81445 52.5684 7.81445C53.0371 7.81445 53.4619 7.88184 53.8428 8.0166C54.2295 8.14551 54.5605 8.35352 54.8359 8.64062C55.1113 8.92773 55.3223 9.30273 55.4688 9.76562C55.6211 10.2227 55.6973 10.7793 55.6973 11.4355V17.5H53.3594V11.418C53.3594 10.9785 53.2949 10.6328 53.166 10.3809C53.0371 10.123 52.8525 9.93848 52.6123 9.82715C52.3779 9.71582 52.0879 9.66016 51.7422 9.66016C51.3672 9.66016 51.0449 9.7334 50.7754 9.87988C50.5059 10.0205 50.2832 10.2168 50.1074 10.4688C49.9375 10.7207 49.8086 11.0107 49.7207 11.3389C49.6387 11.667 49.5977 12.0215 49.5977 12.4023ZM57.332 12.8418V12.6572C57.332 11.96 57.4316 11.3184 57.6309 10.7324C57.8301 10.1406 58.1201 9.62793 58.501 9.19434C58.8818 8.76074 59.3477 8.42383 59.8984 8.18359C60.4492 7.9375 61.0762 7.81445 61.7793 7.81445C62.4941 7.81445 63.127 7.9375 63.6777 8.18359C64.2344 8.42383 64.7031 8.76074 65.084 9.19434C65.4648 9.62793 65.7549 10.1406 65.9541 10.7324C66.1533 11.3184 66.2529 11.96 66.2529 12.6572V12.8418C66.2529 13.5332 66.1533 14.1748 65.9541 14.7666C65.7549 15.3525 65.4648 15.8652 65.084 16.3047C64.7031 16.7383 64.2373 17.0752 63.6865 17.3154C63.1357 17.5557 62.5059 17.6758 61.7969 17.6758C61.0938 17.6758 60.4639 17.5557 59.9072 17.3154C59.3506 17.0752 58.8818 16.7383 58.501 16.3047C58.1201 15.8652 57.8301 15.3525 57.6309 14.7666C57.4316 14.1748 57.332 13.5332 57.332 12.8418ZM59.6523 12.6572V12.8418C59.6523 13.2578 59.6934 13.6475 59.7754 14.0107C59.8574 14.374 59.9834 14.6934 60.1533 14.9688C60.3232 15.2441 60.543 15.4609 60.8125 15.6191C61.0879 15.7715 61.416 15.8477 61.7969 15.8477C62.1719 15.8477 62.4941 15.7715 62.7637 15.6191C63.0332 15.4609 63.2529 15.2441 63.4229 14.9688C63.5986 14.6934 63.7275 14.374 63.8096 14.0107C63.8916 13.6475 63.9326 13.2578 63.9326 12.8418V12.6572C63.9326 12.2471 63.8916 11.8633 63.8096 11.5059C63.7275 11.1426 63.5986 10.8232 63.4229 10.5479C63.2529 10.2666 63.0303 10.0469 62.7549 9.88867C62.4854 9.72461 62.1602 9.64258 61.7793 9.64258C61.4043 9.64258 61.082 9.72461 60.8125 9.88867C60.543 10.0469 60.3232 10.2666 60.1533 10.5479C59.9834 10.8232 59.8574 11.1426 59.7754 11.5059C59.6934 11.8633 59.6523 12.2471 59.6523 12.6572ZM60.4521 19.6445C60.4521 19.3223 60.5693 19.0527 60.8037 18.8359C61.0439 18.6191 61.3662 18.5107 61.7705 18.5107C62.1748 18.5107 62.4941 18.6191 62.7285 18.8359C62.9688 19.0527 63.0889 19.3223 63.0889 19.6445C63.0889 19.9609 62.9688 20.2246 62.7285 20.4355C62.4941 20.6523 62.1748 20.7607 61.7705 20.7607C61.3662 20.7607 61.0439 20.6523 60.8037 20.4355C60.5693 20.2246 60.4521 19.9609 60.4521 19.6445ZM71.8428 15.8477C72.1709 15.8477 72.4639 15.7832 72.7217 15.6543C72.9795 15.5254 73.1846 15.3438 73.3369 15.1094C73.4951 14.875 73.5801 14.6025 73.5918 14.292H75.7803C75.7686 14.9365 75.5869 15.5137 75.2354 16.0234C74.8838 16.5332 74.415 16.9375 73.8291 17.2363C73.249 17.5293 72.5986 17.6758 71.8779 17.6758C71.1455 17.6758 70.5068 17.5527 69.9619 17.3066C69.417 17.0605 68.9629 16.7178 68.5996 16.2783C68.2422 15.8389 67.9727 15.3291 67.791 14.749C67.6152 14.1689 67.5273 13.5479 67.5273 12.8857V12.6045C67.5273 11.9424 67.6152 11.3213 67.791 10.7412C67.9727 10.1611 68.2422 9.65137 68.5996 9.21191C68.9629 8.77246 69.417 8.42969 69.9619 8.18359C70.5068 7.9375 71.1426 7.81445 71.8691 7.81445C72.6367 7.81445 73.3105 7.96387 73.8906 8.2627C74.4766 8.56152 74.9336 8.9834 75.2617 9.52832C75.5957 10.0732 75.7686 10.7148 75.7803 11.4531H73.5918C73.5801 11.1133 73.5039 10.8086 73.3633 10.5391C73.2227 10.2695 73.0234 10.0527 72.7656 9.88867C72.5078 9.72461 72.1943 9.64258 71.8252 9.64258C71.4326 9.64258 71.1045 9.72461 70.8408 9.88867C70.583 10.0527 70.3809 10.2783 70.2344 10.5654C70.0938 10.8467 69.9941 11.1631 69.9355 11.5146C69.8828 11.8604 69.8564 12.2236 69.8564 12.6045V12.8857C69.8564 13.2725 69.8828 13.6416 69.9355 13.9932C69.9941 14.3447 70.0938 14.6611 70.2344 14.9424C70.3809 15.2178 70.583 15.4375 70.8408 15.6016C71.1045 15.7656 71.4385 15.8477 71.8428 15.8477Z" fill="#00A1FF"/>
<path d="M91.8282 14.359L87.082 9.61276C86.7539 9.28471 86.7539 8.75424 87.082 8.42968L87.8707 7.64097C88.1987 7.31292 88.7292 7.31292 89.0538 7.64097L92.418 11.0052L95.7823 7.64097C96.1103 7.31292 96.6408 7.31292 96.9654 7.64097L97.7541 8.42968C98.0821 8.75773 98.0821 9.2882 97.7541 9.61276L93.0078 14.359C92.6868 14.6871 92.1563 14.6871 91.8282 14.359Z" fill="#00A1FF"/>
</g>
<defs>
<clipPath id="clip0_167_563">
<rect width="97.1642" height="21" fill="white" transform="translate(0.835938 0.5)"/>
</clipPath>
</defs>
</svg>
