<svg width="22" height="22" viewBox="0 0 22 22" fill="none" xmlns="http://www.w3.org/2000/svg">
<path d="M22.0001 11.253C22.0001 10.5052 21.9383 9.75348 21.8063 9.01788H11.2217V13.2536H17.283C17.0315 14.6198 16.2233 15.8282 15.0399 16.5962V19.3446H18.6561C20.7796 17.4288 22.0001 14.5995 22.0001 11.253Z" fill="#4285F4"/>
<path d="M11.2213 22C14.2479 22 16.8002 21.026 18.6599 19.3446L15.0437 16.5962C14.0376 17.2671 12.7387 17.647 11.2255 17.647C8.29789 17.647 5.81564 15.711 4.92499 13.1082H1.19336V15.9414C3.09835 19.6558 6.97842 22 11.2213 22V22Z" fill="#34A853"/>
<path d="M4.92122 13.1081C4.45116 11.742 4.45116 10.2627 4.92122 8.89663V6.06336H1.19371C-0.397903 9.17147 -0.397903 12.8333 1.19371 15.9414L4.92122 13.1081V13.1081Z" fill="#FBBC04"/>
<path d="M11.2213 4.35371C12.8212 4.32946 14.3675 4.91956 15.5261 6.00275L18.73 2.86231C16.7013 0.995014 14.0087 -0.0315928 11.2213 0.000741253C6.97842 0.000741253 3.09835 2.34496 1.19336 6.06338L4.92087 8.89665C5.80739 6.28972 8.29377 4.35371 11.2213 4.35371V4.35371Z" fill="#EA4335"/>
</svg>
