<svg width="25" height="26" viewBox="0 0 25 26" fill="none" xmlns="http://www.w3.org/2000/svg">
<path d="M12.5028 7.03758C8.95566 7.03758 6.09453 9.89935 6.09453 13.4473C6.09453 16.9952 8.95566 19.8569 12.5028 19.8569C16.0499 19.8569 18.911 16.9952 18.911 13.4473C18.911 9.89935 16.0499 7.03758 12.5028 7.03758ZM12.5028 17.6144C10.2105 17.6144 8.33659 15.7456 8.33659 13.4473C8.33659 11.1489 10.205 9.28013 12.5028 9.28013C14.8006 9.28013 16.669 11.1489 16.669 13.4473C16.669 15.7456 14.795 17.6144 12.5028 17.6144ZM20.6679 6.77539C20.6679 7.60659 19.9986 8.27043 19.1732 8.27043C18.3422 8.27043 17.6785 7.60101 17.6785 6.77539C17.6785 5.94978 18.3477 5.28036 19.1732 5.28036C19.9986 5.28036 20.6679 5.94978 20.6679 6.77539ZM24.9122 8.29274C24.8173 6.29006 24.36 4.5161 22.8932 3.05454C21.432 1.59298 19.6584 1.13554 17.6562 1.03513C15.5926 0.917979 9.40742 0.917979 7.34384 1.03513C5.34718 1.12996 3.57362 1.5874 2.1068 3.04896C0.639989 4.51053 0.188232 6.28449 0.0878416 8.28716C-0.0292805 10.3512 -0.0292805 16.5377 0.0878416 18.6018C0.182655 20.6045 0.639989 22.3784 2.1068 23.84C3.57362 25.3016 5.34161 25.759 7.34384 25.8594C9.40742 25.9766 15.5926 25.9766 17.6562 25.8594C19.6584 25.7646 21.432 25.3071 22.8932 23.84C24.3544 22.3784 24.8118 20.6045 24.9122 18.6018C25.0293 16.5377 25.0293 10.3568 24.9122 8.29274ZM22.2462 20.8165C21.8112 21.9098 20.969 22.7522 19.8703 23.1929C18.225 23.8456 14.321 23.695 12.5028 23.695C10.6846 23.695 6.77496 23.84 5.13525 23.1929C4.04211 22.7578 3.19994 21.9154 2.75934 20.8165C2.1068 19.1708 2.25739 15.2659 2.25739 13.4473C2.25739 11.6287 2.11238 7.71816 2.75934 6.07808C3.19437 4.9847 4.03653 4.14235 5.13525 3.70164C6.78054 3.04896 10.6846 3.19958 12.5028 3.19958C14.321 3.19958 18.2306 3.05454 19.8703 3.70164C20.9635 4.13677 21.8056 4.97912 22.2462 6.07808C22.8988 7.72374 22.7482 11.6287 22.7482 13.4473C22.7482 15.2659 22.8988 19.1764 22.2462 20.8165Z" fill="url(#paint0_linear_202_762)"/>
<defs>
<linearGradient id="paint0_linear_202_762" x1="8.33333" y1="5.49272" x2="3.40909" y2="24.8109" gradientUnits="userSpaceOnUse">
<stop stop-color="#7739FC"/>
<stop offset="0.23" stop-color="#D501C5"/>
<stop offset="0.5" stop-color="#FE0569"/>
<stop offset="0.75" stop-color="#FF7900"/>
<stop offset="1" stop-color="#FDA847"/>
</linearGradient>
</defs>
</svg>
