<svg xmlns="http://www.w3.org/2000/svg" data-name="Layer 1" width="860.13137" height="571.14799" viewBox="0 0 860.13137 571.14799" xmlns:xlink="http://www.w3.org/1999/xlink">
  <path d="M605.66974,324.95306c-7.66934-11.36753-16.03482-22.49183-26.56465-31.41645-17.41661-14.70682-39.97009-21.23552-62.2092-21.25547-57.1738-.05118-110.61615,23.48237-159.03157,50.0828-48.21836,26.47591-92.11191,59.23962-128.12889,98.93256-10.921,12.02072-21.14066,24.83157-29.41,38.72142-5.05592,8.48018-9.658,17.34276-12.51692,26.79094a62.2543,62.2543,0,0,0-1.869,18.511c1.30432,22.21208,17.00537,39.8614,34.52704,53.68051,10.09965,7.98292,20.99828,14.57782,31.732,21.49773,21.17532,13.59923,41.55882,29.04665,57.25235,48.20684,38.00167,46.4307,40.03759,110.26134,86.86922,149.98141,11.3879,9.6756,21.10462,11.30447,35.37992,12.787a153.22593,153.22593,0,0,0,65.59248-9.87434c19.96387-7.92217,37.59766-20.42649,53.66908-34.63567q20.65933-18.24276,39.77289-38.13772c31.52089-32.96011,60.04887-69.798,74.74232-113.75344,11.27122-33.648,12.56576-70.81289-.73075-104.07228C651.471,403.74347,628.80133,359.67538,605.66974,324.95306Z" transform="translate(-169.93431 -164.42601)" fill="#f2f2f2"/>
  <ellipse cx="374.5" cy="558.87676" rx="374.5" ry="12.27123" fill="#e6e6e6"/>
  <circle cx="464.5" cy="349.87676" r="205" fill="#e6e6e6"/>
  <rect x="365.93726" y="296.22018" width="185.12547" height="8.08642" fill="#fff"/>
  <rect x="432.5" y="252.87676" width="52" height="8" fill="#fff"/>
  <rect x="365.93726" y="198.22018" width="185.12547" height="8.08642" fill="#fff"/>
  <rect x="365.93726" y="248.22018" width="185.12547" height="8.08642" fill="#fff"/>
  <rect x="465.93726" y="49.22018" width="52" height="8" fill="#fff"/>
  <rect x="458.5" y="350.87676" width="10" height="60" fill="#6c63ff"/>
  <rect x="432.5" y="320.87676" width="10" height="90" fill="#6c63ff"/>
  <rect x="406.5" y="380.87676" width="10" height="30" fill="#6c63ff"/>
  <rect x="380.5" y="350.87676" width="10" height="60" fill="#6c63ff"/>
  <rect x="354.5" y="350.87676" width="10" height="60" fill="#6c63ff"/>
  <rect x="328.5" y="380.87676" width="10" height="30" fill="#6c63ff"/>
  <rect x="302.5" y="350.87676" width="10" height="60" fill="#6c63ff"/>
  <rect x="276.5" y="389.87676" width="10" height="21" fill="#6c63ff"/>
  <rect x="483.5" y="389.87676" width="10" height="21" fill="#6c63ff"/>
  <rect x="509.5" y="370.87676" width="10" height="40" fill="#6c63ff"/>
  <rect x="535.5" y="350.87676" width="10" height="60" fill="#6c63ff"/>
  <rect x="561.5" y="380.87676" width="10" height="30" fill="#6c63ff"/>
  <path d="M633.47913,540.646h-214.834a8.38533,8.38533,0,0,1-8.375-8.375v-180.834a8.38533,8.38533,0,0,1,8.375-8.375h214.834a8.38533,8.38533,0,0,1,8.375,8.375v180.834A8.38533,8.38533,0,0,1,633.47913,540.646Z" transform="translate(-169.93431 -164.42601)" fill="#f2f2f2"/>
  <path d="M625.35413,532.646h-198.834a8.38533,8.38533,0,0,1-8.375-8.375v-164.834a8.38533,8.38533,0,0,1,8.375-8.375h198.834a8.38533,8.38533,0,0,1,8.375,8.375v164.834A8.38533,8.38533,0,0,1,625.35413,532.646Z" transform="translate(-169.93431 -164.42601)" fill="#fff"/>
  <path d="M525.93726,384.646h-99.417a1.83739,1.83739,0,0,1-1.83333-1.83333v-50.33334a1.83739,1.83739,0,0,1,1.83333-1.83333h99.417a1.83739,1.83739,0,0,1,1.83333,1.83333v50.33334A1.83739,1.83739,0,0,1,525.93726,384.646Z" transform="translate(-169.93431 -164.42601)" fill="#f2f2f2"/>
  <rect x="449.5" y="180.87676" width="65" height="42" fill="#6c63ff"/>
  <circle cx="464.5" cy="350.87676" r="10" fill="#6c63ff"/>
  <path d="M684.34646,539.29612a1.94,1.94,0,0,1-1.21606-3.46148l8.24924-6.60688a3.25419,3.25419,0,0,0,.48207-4.64189l-6.24207-7.24816a1.94021,1.94021,0,0,1,2.94833-2.5334l6.24207,7.24817a7.13464,7.13464,0,0,1-1.054,10.15106l-8.24925,6.60688A1.92776,1.92776,0,0,1,684.34646,539.29612Z" transform="translate(-169.93431 -164.42601)" fill="#6c63ff"/>
  <path d="M720.27075,507.93109a1.93974,1.93974,0,0,1-2.77636-.10926l-7.00815-7.3582a3.254,3.254,0,0,0-4.65728.12342l-6.10049,7.36428a1.94021,1.94021,0,0,1-2.97023-2.49182l6.1005-7.36427a7.13446,7.13446,0,0,1,10.16228-.24223l7.0033,7.35335A1.94,1.94,0,0,1,720.27075,507.93109Z" transform="translate(-169.93431 -164.42601)" fill="#6c63ff"/>
  <path d="M1029.06569,735.57399h-381a1,1,0,0,1,0-2h381a1,1,0,0,1,0,2Z" transform="translate(-169.93431 -164.42601)" fill="#ccc"/>
</svg> 